# xmcd
#
# Track frame offsets:
#	150
#	1432
#	108507
#	110698
#	113034
#	138351
#	155780
#	193942
#	203373
#	206624
#	217233
#	227546
#	230194
#	244796
#	253052
#	260807
#	264899
#	271519
#	274743
#	280682
#	290037
#	297323
#	299912
#	310549
#	315654
#	319973
#	327068
#
# Disc length: 4373 seconds
# Revision: 0
# Processed by: cddbd v1.5.2PL0 Copyright (c) Steve Scherf et al.
# Submitted via: dBpowerAMP V12.0
#
DISCID=ae11131b
DTITLE=Hale Dwoskin - The Inner Circle Retreat 01 CD 18
DYEAR=2006
DGENRE=Speech
TTITLE0=Intro Music
TTITLE1=Release on the Retreat
TTITLE2=Q and A, Sharing and Assistance
TTITLE3=Participant Gain
TTITLE4=Participant Gain - How to Share
TTITLE5=Participant Gain - Introduction to the Release
TTITLE6=Visualization Release on Living the Perfect Life
TTITLE7=Participant Gain
TTITLE8=Participant Gain
TTITLE9=Participant Gain
TTITLE10=Participant Gain
TTITLE11=Participant Gain
TTITLE12=Participant Gain - Attachment to Processing
TTITLE13=Participant Gain
TTITLE14=Participant Gain
TTITLE15=Participant Gain
TTITLE16=Participant Gain
TTITLE17=Participant Gain
TTITLE18=Participant Gain
TTITLE19=Participant Gain
TTITLE20=Participant Gain
TTITLE21=Participant Gain
TTITLE22=Participant Gain
TTITLE23=Participant Gain
TTITLE24=Participant Gain
TTITLE25=Conclusion
TTITLE26=Concluding Music
EXTD=
EXTT0=
EXTT1=
EXTT2=
EXTT3=
EXTT4=
EXTT5=
EXTT6=
EXTT7=
EXTT8=
EXTT9=
EXTT10=
EXTT11=
EXTT12=
EXTT13=
EXTT14=
EXTT15=
EXTT16=
EXTT17=
EXTT18=
EXTT19=
EXTT20=
EXTT21=
EXTT22=
EXTT23=
EXTT24=
EXTT25=
EXTT26=
PLAYORDER=
